<?xml version="1.0" standalone="no"?>
<!DOCTYPE svg PUBLIC "-//W3C//DTD SVG 20010904//EN"
 "http://www.w3.org/TR/2001/REC-SVG-20010904/DTD/svg10.dtd">
<svg version="1.0" xmlns="http://www.w3.org/2000/svg"
 width="281.000000pt" height="108.000000pt" viewBox="0 0 281.000000 108.000000"
 preserveAspectRatio="xMidYMid meet">

<g transform="translate(0.000000,108.000000) scale(0.100000,-0.100000)"
fill="#000000" stroke="none">
<path d="M357 792 l-68 -69 140 -107 c133 -101 141 -105 151 -86 6 12 25 29
41 39 l30 18 -28 34 c-15 19 -30 36 -34 39 -3 3 -38 49 -78 103 -41 53 -76 97
-80 97 -4 0 -37 -31 -74 -68z"/>
<path d="M1250 495 l0 -115 85 0 c78 0 85 2 85 20 0 16 -8 19 -57 22 -54 3
-58 5 -58 28 0 23 3 25 48 25 40 0 47 3 47 20 0 17 -7 20 -47 20 -42 0 -48 3
-51 23 -3 21 0 22 52 22 53 0 56 1 56 25 0 25 -1 25 -80 25 l-80 0 0 -115z"/>
<path d="M1520 608 c0 -2 20 -53 44 -113 35 -86 48 -111 65 -113 12 -2 21 -2
21 0 0 2 20 53 45 112 25 60 45 111 45 113 0 2 -11 3 -25 3 -15 0 -28 -7 -32
-17 -3 -10 -17 -43 -30 -73 l-25 -55 -28 70 c-23 59 -32 70 -54 73 -14 2 -26
2 -26 0z"/>
<path d="M1850 495 l0 -115 86 0 c82 0 85 1 82 22 -3 19 -10 21 -58 22 -52 1
-55 2 -55 26 0 23 4 25 48 28 36 2 47 7 47 20 0 14 -9 17 -47 17 -42 0 -48 3
-51 23 -3 21 0 22 52 22 53 0 56 1 56 25 0 25 -1 25 -80 25 l-80 0 0 -115z"/>
<path d="M2150 495 l0 -115 25 0 c23 0 24 3 27 69 l3 69 50 -67 c37 -48 58
-67 78 -69 l27 -3 0 115 0 116 -25 0 c-23 0 -24 -3 -27 -72 l-3 -73 -55 72
c-39 51 -62 72 -77 73 -23 0 -23 -2 -23 -115z"/>
<path d="M2480 590 c0 -16 7 -20 30 -20 l30 0 0 -95 c0 -94 0 -95 25 -95 24 0
24 2 27 93 l3 92 33 3 c24 2 32 8 32 23 0 17 -8 19 -90 19 -83 0 -90 -1 -90
-20z"/>
<path d="M740 460 c-6 -12 -25 -29 -41 -39 l-30 -19 48 -58 c27 -33 75 -94
107 -137 32 -42 61 -77 65 -77 4 0 37 31 74 68 l68 68 -140 107 c-132 101
-141 106 -151 87z"/>
</g>
</svg>
